HIERARCHY
ROOT RootJoint
{
    OFFSET   0.000000   0.000000   0.000000
    CHANNELS 6 Xposition Yposition Zposition Xrotation Yrotation Zrotation
    JOINT pelvis_lowerback
    {
        OFFSET   0.000000   0.093605   0.000000
        CHANNELS 3 Xrotation Yrotation Zrotation
        JOINT lowerback_torso
        {
            OFFSET   0.000000   0.100000   0.000000
            CHANNELS 3 Xrotation Yrotation Zrotation
            JOINT torso_head
            {
                OFFSET   0.000000   0.282350   0.000000
                CHANNELS 3 Xrotation Yrotation Zrotation
                End Site
                {
                    OFFSET   0.000000   0.192650   0.000000
                }
            }
            JOINT rTorso_Clavicle
            {
                OFFSET  -0.001000   0.157500   0.000000
                CHANNELS 3 Xrotation Yrotation Zrotation
                JOINT rShoulder
                {
                    OFFSET  -0.117647   0.000000   0.000000
                    CHANNELS 3 Xrotation Yrotation Zrotation
                    JOINT rElbow
                    {
                        OFFSET  -0.245000   0.000000   0.000000
                        CHANNELS 3 Xrotation Yrotation Zrotation
                        JOINT rWrist
                        {
                            OFFSET  -0.240000   0.000000   0.000000
                            CHANNELS 3 Xrotation Yrotation Zrotation
                            End Site
                            {
                                OFFSET  -0.116353  -0.002500   0.000000
                            }
                        }
                    }
                }
            }
            JOINT lTorso_Clavicle
            {
                OFFSET   0.001000   0.157500   0.000000
                CHANNELS 3 Xrotation Yrotation Zrotation
                JOINT lShoulder
                {
                    OFFSET   0.117647   0.000000   0.000000
                    CHANNELS 3 Xrotation Yrotation Zrotation
                    JOINT lElbow
                    {
                        OFFSET   0.245000   0.000000   0.000000
                        CHANNELS 3 Xrotation Yrotation Zrotation
                        JOINT lWrist
                        {
                            OFFSET   0.240000   0.000000   0.000000
                            CHANNELS 3 Xrotation Yrotation Zrotation
                            End Site
                            {
                                OFFSET   0.116353  -0.002500   0.000000
                            }
                        }
                    }
                }
            }
        }
    }
    JOINT rHip
    {
        OFFSET  -0.100000  -0.051395   0.000000
        CHANNELS 3 Xrotation Yrotation Zrotation
        JOINT rKnee
        {
            OFFSET   0.000000  -0.410000   0.000000
            CHANNELS 3 Xrotation Yrotation Zrotation
            JOINT rAnkle
            {
                OFFSET   0.000000  -0.390000   0.000000
                CHANNELS 3 Xrotation Yrotation Zrotation
                JOINT rToeJoint
                {
                    OFFSET   0.000000  -0.050000   0.130000
                    CHANNELS 3 Xrotation Yrotation Zrotation
                    End Site
                    {
                        OFFSET  -0.010000   0.002000   0.060000
                    }
                }
            }
        }
    }
    JOINT lHip
    {
        OFFSET   0.100000  -0.051395   0.000000
        CHANNELS 3 Xrotation Yrotation Zrotation
        JOINT lKnee
        {
            OFFSET   0.000000  -0.410000   0.000000
            CHANNELS 3 Xrotation Yrotation Zrotation
            JOINT lAnkle
            {
                OFFSET   0.000000  -0.390000   0.000000
                CHANNELS 3 Xrotation Yrotation Zrotation
                JOINT lToeJoint
                {
                    OFFSET   0.000000  -0.050000   0.130000
                    CHANNELS 3 Xrotation Yrotation Zrotation
                    End Site
                    {
                        OFFSET   0.010000   0.002000   0.060000
                    }
                }
            }
        }
    }
}
MOTION
Frames: 15
Frame Time:   0.008333
 -2.376719   0.925631   3.975860   0.000000   0.000000   0.000000   0.000000   0.000000   0.000000   0.000000   0.000000   0.000000   0.000000   0.000000   0.000000   0.000000   0.000000   0.000000   0.000000   0.000000   0.000000   0.000000   0.000000   0.000000   0.000000   0.000000   0.000000   0.000000   0.000000   0.000000   0.000000   0.000000   0.000000   0.000000   0.000000   0.000000   0.000000   0.000000   0.000000   0.000000   0.000000   0.000000   0.000000   0.000000   0.000000   0.000000   0.000000   0.000000   0.000000   0.000000   0.000000   0.000000   0.000000   0.000000   0.000000   0.000000   0.000000   0.000000   0.000000   0.000000   0.000000   0.000000   0.000000
 -2.376525   0.926046   3.976185  -0.039536   0.116017   0.024131  -0.092031  -0.059834  -0.001757   0.158246  -0.168673   0.012621  -0.013819   0.079377  -0.020630   0.218311  -0.362487   0.023488   0.721206   0.203991   2.238501   0.023601   1.169983  -0.010052   0.348244  -0.339712  -2.575219   0.241432   0.368886  -0.202959   1.081704  -0.043417  -2.131543   0.019154  -0.948910   0.011300   0.409634   0.212720   2.486040  -0.076500   0.086725  -0.188040   0.508127   0.000731   0.000895  -0.673153  -0.232424  -0.028461  -0.130743  -0.000218   0.000033  -0.088330  -0.216822   0.090832   0.586506  -0.000593  -0.000512  -0.833777   0.111890   0.104478   0.319628  -0.000610   0.000031
 -2.376283   0.926788   3.976706  -0.106164   0.246644   0.050872  -0.204386  -0.137475   0.006053   0.320482  -0.353233   0.025764  -0.011817   0.152928  -0.035981   0.430114  -0.703576   0.704483   1.420185   0.455692   4.998601   0.053906   2.300874  -0.016954   0.732223  -0.346360  -4.470409   0.483214   0.705249  -1.080194   2.144047  -0.147043  -4.807417   0.043741  -1.862690   0.019419   0.863192   0.184356   4.264290  -0.123904   0.173364  -0.502166   1.053190   0.001975   0.001721  -1.303948  -0.451768  -0.058934  -0.290661  -0.000614   0.000025  -0.108139  -0.423646   0.287881   1.213266  -0.001712  -0.000800  -1.615687   0.216713   0.204187   0.568489  -0.001188   0.000092
 -2.376026   0.927484   3.977362  -0.167597   0.374648   0.076378  -0.336163  -0.222290   0.018356   0.455399  -0.538646   0.039699  -0.010915   0.221225  -0.047703   0.632362  -1.011796   1.799105   2.093159   0.744206   8.097863   0.083240   3.359836  -0.021016   1.106285  -0.273460  -5.610777   0.715634   0.996264  -2.369576   3.181711  -0.316621  -7.834236   0.067607  -2.720558   0.024736   1.303559   0.085502   5.274485  -0.166910   0.253630  -0.911268   1.574842   0.003363   0.002262  -1.892643  -0.657522  -0.090494  -0.442774  -0.001038   0.000010  -0.086407  -0.614075   0.578101   1.821012  -0.003061  -0.000908  -2.345386   0.314871   0.299310   0.790687  -0.001743   0.000152
 -2.375766   0.927863   3.978115  -0.218197   0.492254   0.099782  -0.481210  -0.310501   0.032394   0.562528  -0.721197   0.054139  -0.013286   0.284958  -0.057410   0.828475  -1.293139   3.135272   2.741861   1.069298  11.425561   0.108291   4.347798  -0.023059   1.463643  -0.185375  -6.189782   0.939396   1.250494  -3.892287   4.195983  -0.554610 -11.094327   0.088081  -3.524105   0.028061   1.725938  -0.043482   5.722481  -0.212495   0.327825  -1.393202   2.063051   0.004689   0.002529  -2.442692  -0.850413  -0.122661  -0.587552  -0.001447  -0.000001  -0.034707  -0.789501   0.945169   2.400173  -0.004439  -0.000918  -3.026812   0.406681   0.390007   0.989338  -0.002225   0.000191
 -2.375514   0.927725   3.978937  -0.258514   0.594982   0.121137  -0.634146  -0.400329   0.046541   0.646744  -0.899354   0.068002  -0.017972   0.344481  -0.065737   1.020256  -1.553327   4.597616   3.366450   1.429868  14.905777   0.127843   5.268086  -0.023716   1.802649  -0.101088  -6.386397   1.154693   1.475814  -5.532745   5.183305  -0.859593 -14.500014   0.104137  -4.275903   0.029982   2.129593  -0.188608   5.789862  -0.262301   0.396851  -1.930194   2.517497   0.005841   0.002577  -2.956727  -1.031098  -0.155039  -0.724628  -0.001809  -0.000002   0.040781  -0.951277   1.373307   2.949925  -0.005722  -0.000882  -3.663168   0.492415   0.476378   1.167582  -0.002608   0.000206
 -2.375321   0.926908   3.979803  -0.290666   0.681942   0.144002  -0.790616  -0.489825   0.051855   0.713351  -1.071278   0.064058  -0.023945   0.399918  -0.068453   1.209256  -1.797703   6.117370   3.966415   1.823978  18.492703   0.141755   6.124289  -0.023453   2.123031  -0.028611  -6.323991   1.363669   1.680062  -7.269662   6.085871  -1.208241 -17.826331   0.115141  -4.979595   0.030587   2.515800  -0.350763   5.521492  -0.316188   0.461436  -2.506248   2.939944   0.006756   0.002470  -3.437163  -1.200292  -0.187377  -0.854155  -0.002105   0.000004   0.135343  -1.100623   1.849458   3.471237  -0.006860  -0.000823  -4.257381   0.572293   0.558438   1.328030  -0.002896   0.000201
 -2.375138   0.924671   3.980245  -0.181936   0.708741   0.140141  -0.959857  -0.545925   0.108628   0.714561  -1.236896   0.036289  -0.088019   0.333764  -0.096312   1.449648  -1.971857   7.025682   4.697098   2.274861  21.903372   0.152951   7.120989  -0.026146   2.398383   0.047608  -5.149251   1.678337   1.896314  -8.213118   6.804386  -1.611777 -21.191217   0.122012  -5.750288   0.031609   2.837517  -0.670469   4.221516  -0.623746   0.320337  -3.008032   3.495025   0.007838   0.001178  -3.662294  -1.434936  -0.011702  -0.804738  -0.001537  -0.000146   0.149504  -1.151012   2.305338   3.461921  -0.005451  -0.000661  -4.527034   0.653887   0.584880   1.500620  -0.003030   0.000261
 -2.374958   0.921243   3.980435  -0.063158   0.747188   0.130786  -1.074215  -0.605157   0.169866   0.727368  -1.393494   0.016083  -0.152502   0.265870  -0.125952   1.665636  -2.108611   7.676778   5.347778   2.748539  24.952852   0.154882   8.063568  -0.027776   2.677641   0.206053  -4.050992   1.964729   2.081316  -8.882599   7.449640  -2.027977 -24.193278   0.121831  -6.476708   0.031850   3.145357  -1.052442   3.006178  -0.940387   0.176758  -3.460056   4.016716   0.008336   0.000210  -3.867045  -1.657476   0.151221  -0.729141  -0.001028  -0.000336   0.102744  -1.198148   2.717975   3.363303  -0.004012  -0.000548  -4.781430   0.729797   0.609852   1.666297  -0.003034   0.000321
 -2.374751   0.921031   3.980899  -0.053001   0.740462   0.204115  -1.132260  -0.638854   0.168937   0.789692  -1.522226  -0.025820  -0.196362   0.202637  -0.157256   1.861801  -2.215725   8.419186   5.924349   3.231834  27.800227   0.153350   8.940852  -0.028040   2.947403   0.347076  -3.214006   2.227590   2.247673  -9.621170   8.027471  -2.446541 -26.979975   0.119019  -7.147735   0.031103   3.435177  -1.374911   2.075694  -1.266644  -0.058127  -3.607586   4.630482   0.006963  -0.001347  -3.766607  -1.952707   0.479292  -0.574408  -0.001140  -0.001029   0.031177  -1.133496   2.647806   3.506329  -0.003212  -0.000353  -4.626576   0.892387   0.455550   1.888430  -0.002133   0.000687
 -2.374587   0.920931   3.981495  -0.023508   0.743434   0.275866  -1.209842  -0.672720   0.178284   0.839225  -1.640815  -0.064145  -0.237157   0.143203  -0.188631   2.049144  -2.322867   8.969823   6.443163   3.705901  30.418287   0.147439   9.765658  -0.027377   3.205227   0.520032  -2.373617   2.477341   2.413448 -10.167630   8.552357  -2.854851 -29.540594   0.113122  -7.778363   0.029643   3.708317  -1.715378   1.153178  -1.534283  -0.191785  -3.726364   5.156634   0.005711  -0.001831  -3.883264  -2.146310   0.628987  -0.467859  -0.001003  -0.001143  -0.003870  -1.155625   2.562028   3.597796  -0.002561  -0.000294  -4.702426   0.962592   0.453527   2.064796  -0.001677   0.000634
 -2.374473   0.920845   3.982116   0.027641   0.758786   0.345788  -1.288806  -0.704019   0.193443   0.876153  -1.750406  -0.094995  -0.278748   0.087601  -0.217611   2.223636  -2.426030   9.393267   6.908625   4.162498  32.800183   0.138680  10.535022  -0.026180   3.450454   0.689875  -1.655458   2.710570   2.572870 -10.585132   9.028417  -3.246324 -31.867219   0.105252  -8.365084   0.027735   3.965113  -2.038337   0.359035  -1.784809  -0.305538  -3.836825   5.617875   0.004667  -0.001978  -4.014565  -2.321823   0.759729  -0.387992  -0.000865  -0.001118  -0.040709  -1.186436   2.480648   3.652299  -0.002044  -0.000241  -4.797476   1.022547   0.459310   2.208285  -0.001331   0.000567
 -2.374410   0.920762   3.982739   0.091043   0.788464   0.413856  -1.359971  -0.732283   0.213539   0.909396  -1.851325  -0.118519  -0.319073   0.035653  -0.244209   2.385191  -2.523543   9.719080   7.326122   4.600507  34.972932   0.128400  11.252236  -0.024726   3.683714   0.847728  -1.063193   2.927554   2.724555 -10.902563   9.460482  -3.620285 -33.986061   0.096411  -8.910546   0.025592   4.207229  -2.335305  -0.303414  -2.022279  -0.410180  -3.940199   6.034989   0.003804  -0.001949  -4.144377  -2.485655   0.880490  -0.317205  -0.000745  -0.001052  -0.082048  -1.216682   2.405229   3.687146  -0.001633  -0.000193  -4.895714   1.078002   0.465749   2.337574  -0.001060   0.000517
 -2.374448   0.920716   3.983466   0.144215   0.804214   0.457748  -1.396569  -0.739582   0.195122   0.908800  -1.882000  -0.069070  -0.307249  -0.067925  -0.275623   2.497032  -2.706355   9.711047   7.730518   5.006619  36.670055   0.115066  11.967631  -0.022987   3.863633   1.114052   0.130660   3.113611   2.896089 -10.851699   9.731731  -3.973900 -35.811894   0.087538  -9.548375   0.022971   4.411492  -2.624098  -1.427171  -2.134323  -0.502171  -3.998565   6.229369   0.003044  -0.001712  -4.179603  -2.496959   0.935191  -0.139470  -0.000661  -0.000989  -0.026893  -1.240448   2.360325   3.557594  -0.001308  -0.000143  -4.863914   1.144895   0.513840   2.418499  -0.000878   0.000455
 -2.374562   0.920704   3.984146   0.225283   0.818289   0.491716  -1.433715  -0.740351   0.173046   0.896151  -1.904953  -0.022561  -0.295588  -0.164383  -0.300797   2.583268  -2.874172   9.462454   8.095449   5.380892  38.077162   0.100350  12.635870  -0.021105   4.032399   1.386426   1.080594   3.272110   3.050253 -10.583456   9.973310  -4.298701 -37.359831   0.077272 -10.147494   0.020408   4.598285  -2.935995  -2.327015  -2.243685  -0.585202  -4.040104   6.360062   0.002429  -0.001459  -4.231852  -2.504783   0.982686   0.029351  -0.000593  -0.000911   0.014964  -1.265261   2.330268   3.395855  -0.001041  -0.000095  -4.853054   1.206201   0.562569   2.500105  -0.000736   0.000399
